# MagicaVoxel @ Ephtracy

# group
g art

# material
mtllib art.mtl
usemtl palette

# normals
vn -1 0 0
vn 1 0 0
vn 0 0 1
vn 0 0 -1
vn 0 -1 0
vn 0 1 0

# texcoords
vt 0.306641 0.5
vt 0.345703 0.5
vt 0.876953 0.5
vt 0.958984 0.5
vt 0.994141 0.5

# verts
v -20 0 20
v -20 0 -20
v -20 1 14
v -20 1 -14
v -20 39 14
v -20 39 -14
v -20 40 20
v -20 40 -20
v -15 1 15
v -15 1 8
v -15 4 15
v -15 4 8
v -15 5 15
v -15 5 8
v 19 1 19
v 19 1 14
v 19 1 -14
v 19 1 -18
v 19 39 19
v 19 39 14
v 19 39 -14
v 19 39 -18
v -19 1 19
v -19 1 14
v -19 1 -14
v -19 1 -18
v -19 39 19
v -19 39 14
v -19 39 -14
v -19 39 -18
v 15 1 15
v 15 1 8
v 15 4 15
v 15 4 8
v 15 5 15
v 15 5 8
v 20 0 20
v 20 0 -20
v 20 1 14
v 20 1 -14
v 20 39 14
v 20 39 -14
v 20 40 20
v 20 40 -20
v -20 0 20
v -20 40 20
v -19 0 20
v -19 1 20
v -19 39 20
v 19 0 20
v 19 1 20
v 19 39 20
v 20 0 20
v 20 40 20
v -15 1 15
v -15 4 15
v -15 5 15
v 15 1 15
v 15 4 15
v 15 5 15
v -19 1 -18
v -19 39 -18
v 19 1 -18
v 19 39 -18
v -19 1 19
v -19 39 19
v 19 1 19
v 19 39 19
v -15 1 8
v -15 4 8
v -15 5 8
v 15 1 8
v 15 4 8
v 15 5 8
v -20 0 -20
v -20 40 -20
v 20 0 -20
v 20 40 -20
v -20 0 20
v -19 0 20
v 19 0 20
v 20 0 20
v -19 0 -18
v 19 0 -18
v -20 0 -20
v 20 0 -20
v -19 39 19
v 19 39 19
v -19 39 14
v 19 39 14
v -19 39 -14
v 19 39 -14
v -19 39 -18
v 19 39 -18
v -19 1 19
v 19 1 19
v -15 1 15
v 15 1 15
v -19 1 14
v 19 1 14
v -15 1 8
v 15 1 8
v -19 1 -14
v 19 1 -14
v -19 1 -18
v 19 1 -18
v -15 5 15
v 15 5 15
v -15 5 8
v 15 5 8
v -20 40 20
v 20 40 20
v -20 40 -20
v 20 40 -20

# faces
f 3/1/1 2/1/1 1/1/1
f 4/1/1 2/1/1 3/1/1
f 5/1/1 3/1/1 1/1/1
f 5/4/1 4/4/1 3/4/1
f 6/1/1 2/1/1 4/1/1
f 6/4/1 4/4/1 5/4/1
f 7/1/1 5/1/1 1/1/1
f 7/1/1 6/1/1 5/1/1
f 8/1/1 2/1/1 6/1/1
f 8/1/1 6/1/1 7/1/1
f 11/3/1 10/3/1 9/3/1
f 12/3/1 10/3/1 11/3/1
f 13/5/1 12/5/1 11/5/1
f 14/5/1 12/5/1 13/5/1
f 19/1/1 16/1/1 15/1/1
f 20/4/1 17/4/1 16/4/1
f 20/1/1 16/1/1 19/1/1
f 21/1/1 18/1/1 17/1/1
f 21/4/1 17/4/1 20/4/1
f 22/1/1 18/1/1 21/1/1
f 23/1/2 24/1/2 27/1/2
f 24/4/2 25/4/2 28/4/2
f 27/1/2 24/1/2 28/1/2
f 25/1/2 26/1/2 29/1/2
f 28/4/2 25/4/2 29/4/2
f 29/1/2 26/1/2 30/1/2
f 31/3/2 32/3/2 33/3/2
f 33/3/2 32/3/2 34/3/2
f 33/5/2 34/5/2 35/5/2
f 35/5/2 34/5/2 36/5/2
f 37/1/2 38/1/2 39/1/2
f 39/1/2 38/1/2 40/1/2
f 37/1/2 39/1/2 41/1/2
f 39/4/2 40/4/2 41/4/2
f 40/1/2 38/1/2 42/1/2
f 41/4/2 40/4/2 42/4/2
f 37/1/2 41/1/2 43/1/2
f 41/1/2 42/1/2 43/1/2
f 42/1/2 38/1/2 44/1/2
f 43/1/2 42/1/2 44/1/2
f 47/1/3 46/1/3 45/1/3
f 48/1/3 46/1/3 47/1/3
f 49/1/3 46/1/3 48/1/3
f 50/2/3 48/2/3 47/2/3
f 51/4/3 49/4/3 48/4/3
f 51/2/3 48/2/3 50/2/3
f 52/1/3 46/1/3 49/1/3
f 52/4/3 49/4/3 51/4/3
f 53/1/3 51/1/3 50/1/3
f 53/1/3 52/1/3 51/1/3
f 54/1/3 46/1/3 52/1/3
f 54/1/3 52/1/3 53/1/3
f 58/3/3 56/3/3 55/3/3
f 59/5/3 57/5/3 56/5/3
f 59/3/3 56/3/3 58/3/3
f 60/5/3 57/5/3 59/5/3
f 63/1/3 62/1/3 61/1/3
f 64/1/3 62/1/3 63/1/3
f 65/4/4 66/4/4 67/4/4
f 67/4/4 66/4/4 68/4/4
f 69/3/4 70/3/4 72/3/4
f 70/5/4 71/5/4 73/5/4
f 72/3/4 70/3/4 73/3/4
f 73/5/4 71/5/4 74/5/4
f 75/1/4 76/1/4 77/1/4
f 77/1/4 76/1/4 78/1/4
f 83/1/5 80/1/5 79/1/5
f 83/2/5 81/2/5 80/2/5
f 84/1/5 82/1/5 81/1/5
f 84/2/5 81/2/5 83/2/5
f 85/1/5 83/1/5 79/1/5
f 85/1/5 84/1/5 83/1/5
f 86/1/5 82/1/5 84/1/5
f 86/1/5 84/1/5 85/1/5
f 89/1/5 88/1/5 87/1/5
f 90/1/5 88/1/5 89/1/5
f 91/1/5 90/1/5 89/1/5
f 92/1/5 90/1/5 91/1/5
f 93/1/5 92/1/5 91/1/5
f 94/1/5 92/1/5 93/1/5
f 95/2/6 96/2/6 97/2/6
f 97/2/6 96/2/6 98/2/6
f 95/2/6 97/2/6 99/2/6
f 98/2/6 96/2/6 100/2/6
f 99/2/6 97/2/6 101/2/6
f 98/2/6 100/2/6 102/2/6
f 99/2/6 101/2/6 103/2/6
f 101/2/6 102/2/6 103/2/6
f 102/2/6 100/2/6 104/2/6
f 103/2/6 102/2/6 104/2/6
f 103/2/6 104/2/6 105/2/6
f 105/2/6 104/2/6 106/2/6
f 107/5/6 108/5/6 109/5/6
f 109/5/6 108/5/6 110/5/6
f 111/1/6 112/1/6 113/1/6
f 113/1/6 112/1/6 114/1/6
